<svg xmlns="http://www.w3.org/2000/svg" xmlns:xlink="http://www.w3.org/1999/xlink" width="500" zoomAndPan="magnify" viewBox="0 0 375 374.999991" height="500" preserveAspectRatio="xMidYMid meet" version="1.0"><defs><g/><clipPath id="94b37f8891"><path d="M 132 85.558594 L 199 85.558594 L 199 191.023438 L 132 191.023438 Z M 132 85.558594 " clip-rule="nonzero"/></clipPath><clipPath id="a200b632d6"><path d="M 126.21875 118 L 152 118 L 152 159 L 126.21875 159 Z M 126.21875 118 " clip-rule="nonzero"/></clipPath><clipPath id="be3a2a9e62"><path d="M 215.117188 101.15625 L 240.21875 101.15625 L 240.21875 141.707031 L 215.117188 141.707031 Z M 215.117188 101.15625 " clip-rule="nonzero"/></clipPath><clipPath id="3dc85eab35"><path d="M 238 102.195312 L 240.21875 102.195312 L 240.21875 140.667969 L 238 140.667969 Z M 238 102.195312 " clip-rule="nonzero"/></clipPath><clipPath id="28766debed"><path d="M 227.59375 101.15625 L 240.21875 101.15625 L 240.21875 141.707031 L 227.59375 141.707031 Z M 227.59375 101.15625 " clip-rule="nonzero"/></clipPath></defs><rect x="-37.5" width="450" fill="#ffffff" y="-37.499999" height="449.999989" fill-opacity="1"/><rect x="-37.5" width="450" fill="#f9f8f9" y="-37.499999" height="449.999989" fill-opacity="1"/><g clip-path="url(#94b37f8891)"><path fill="#212f3c" d="M 155.65625 148.152344 L 136.234375 167.574219 C 130.867188 172.941406 130.867188 181.636719 136.234375 187 C 141.59375 192.363281 150.289062 192.363281 155.65625 187 L 194.503906 148.152344 C 199.871094 142.785156 199.871094 134.089844 194.503906 128.726562 L 155.65625 89.875 C 150.289062 84.511719 141.59375 84.511719 136.234375 89.875 C 130.867188 95.242188 130.867188 103.9375 136.234375 109.304688 L 155.65625 128.726562 C 161.019531 134.089844 161.019531 142.785156 155.65625 148.152344 " fill-opacity="1" fill-rule="nonzero"/></g><g clip-path="url(#a200b632d6)"><path fill="#212f3c" d="M 135.652344 142.128906 L 128.265625 149.511719 C 126.230469 151.550781 126.230469 154.859375 128.265625 156.894531 C 130.304688 158.933594 133.613281 158.933594 135.652344 156.894531 L 150.414062 142.128906 C 152.453125 140.089844 152.453125 136.785156 150.414062 134.746094 L 135.652344 119.976562 C 133.613281 117.9375 130.304688 117.9375 128.265625 119.976562 C 126.230469 122.015625 126.230469 125.320312 128.265625 127.359375 L 135.652344 134.746094 C 137.6875 136.785156 137.6875 140.089844 135.652344 142.128906 " fill-opacity="1" fill-rule="nonzero"/></g><path fill="#657179" d="M 131.960938 158.421875 C 131.601562 158.421875 131.242188 158.386719 130.886719 158.3125 C 131.851562 158.109375 132.765625 157.644531 133.511719 156.894531 L 148.277344 142.128906 C 150.3125 140.089844 150.3125 136.785156 148.277344 134.746094 L 133.511719 119.976562 C 132.765625 119.234375 131.851562 118.761719 130.886719 118.5625 C 131.242188 118.492188 131.601562 118.453125 131.960938 118.453125 C 133.296875 118.453125 134.632812 118.960938 135.652344 119.976562 L 150.414062 134.746094 C 151.433594 135.765625 151.945312 137.101562 151.945312 138.4375 C 151.945312 139.773438 151.433594 141.109375 150.414062 142.128906 L 135.652344 156.894531 C 134.632812 157.914062 133.296875 158.421875 131.960938 158.421875 " fill-opacity="1" fill-rule="nonzero"/><path fill="#657179" d="M 187.851562 154.804688 L 168.496094 135.453125 C 163.136719 130.085938 163.136719 121.390625 168.496094 116.023438 L 175.152344 109.371094 L 194.503906 128.726562 C 197.1875 131.40625 198.527344 134.921875 198.527344 138.4375 C 198.527344 141.953125 197.1875 145.46875 194.503906 148.152344 L 187.851562 154.804688 " fill-opacity="1" fill-rule="nonzero"/><path fill="#262920" d="M 211.578125 111.792969 L 231.003906 92.367188 C 236.371094 87.003906 236.371094 78.304688 231.003906 72.945312 C 225.640625 67.578125 216.945312 67.578125 211.578125 72.945312 L 172.730469 111.792969 C 167.367188 117.152344 167.367188 125.855469 172.730469 131.214844 L 211.578125 170.0625 C 216.945312 175.429688 225.640625 175.429688 231.003906 170.0625 C 236.371094 164.703125 236.371094 156.003906 231.003906 150.640625 L 211.578125 131.214844 C 206.21875 125.855469 206.21875 117.152344 211.578125 111.792969 " fill-opacity="1" fill-rule="nonzero"/><g clip-path="url(#be3a2a9e62)"><path fill="#262920" d="M 231.585938 117.8125 L 238.96875 110.429688 C 241.007812 108.390625 241.007812 105.082031 238.96875 103.042969 C 236.929688 101.003906 233.625 101.003906 231.585938 103.042969 L 216.816406 117.8125 C 214.777344 119.851562 214.777344 123.15625 216.816406 125.195312 L 231.585938 139.964844 C 233.625 142.003906 236.929688 142.003906 238.96875 139.964844 C 241.007812 137.925781 241.007812 134.617188 238.96875 132.578125 L 231.585938 125.195312 C 229.546875 123.15625 229.546875 119.851562 231.585938 117.8125 " fill-opacity="1" fill-rule="nonzero"/></g><g clip-path="url(#3dc85eab35)"><path fill="#d3d2d2" d="M 238.359375 140.488281 C 238.570312 140.328125 238.777344 140.15625 238.96875 139.964844 C 239.988281 138.945312 240.496094 137.609375 240.496094 136.273438 C 240.496094 137.609375 239.988281 138.945312 238.96875 139.964844 C 238.777344 140.15625 238.570312 140.328125 238.359375 140.488281 M 238.96875 103.042969 C 238.792969 102.867188 238.601562 102.699219 238.402344 102.546875 C 238.601562 102.699219 238.792969 102.867188 238.96875 103.042969 " fill-opacity="1" fill-rule="nonzero"/></g><g clip-path="url(#28766debed)"><path fill="#657179" d="M 235.28125 141.492188 C 234.921875 141.492188 234.5625 141.453125 234.210938 141.378906 C 235.167969 141.179688 236.082031 140.707031 236.828125 139.964844 C 238.867188 137.925781 238.867188 134.617188 236.828125 132.578125 L 229.445312 125.195312 C 227.40625 123.15625 227.40625 119.851562 229.445312 117.8125 L 236.828125 110.429688 C 238.867188 108.390625 238.867188 105.082031 236.828125 103.042969 C 236.082031 102.296875 235.167969 101.828125 234.210938 101.625 C 234.5625 101.554688 234.921875 101.515625 235.28125 101.515625 C 236.378906 101.515625 237.480469 101.863281 238.402344 102.546875 C 238.601562 102.699219 238.792969 102.867188 238.96875 103.042969 C 239.988281 104.0625 240.496094 105.398438 240.496094 106.734375 C 240.496094 108.074219 239.988281 109.410156 238.96875 110.429688 L 231.585938 117.8125 C 230.566406 118.832031 230.054688 120.167969 230.054688 121.503906 C 230.054688 122.839844 230.566406 124.175781 231.585938 125.195312 L 238.96875 132.578125 C 239.988281 133.597656 240.496094 134.9375 240.496094 136.273438 C 240.496094 137.609375 239.988281 138.945312 238.96875 139.964844 C 238.777344 140.15625 238.570312 140.328125 238.359375 140.488281 C 237.445312 141.15625 236.363281 141.492188 235.28125 141.492188 " fill-opacity="1" fill-rule="nonzero"/></g><g fill="#41483c" fill-opacity="0.4"><g transform="translate(133.254232, 242.3579)"><g><path d="M 28.109375 -31.6875 L 12.3125 -31.6875 L 12.3125 -22.984375 L 25.9375 -22.984375 L 25.9375 -15.84375 L 12.3125 -15.84375 L 12.3125 0 L 4.25 0 L 4.25 -38.828125 L 28.109375 -38.828125 Z M 28.109375 -31.6875 "/></g></g></g><g fill="#41483c" fill-opacity="0.4"><g transform="translate(159.445404, 242.3579)"><g><path d="M 12.015625 -7.203125 L 25.046875 -7.203125 L 25.046875 0 L 3.9375 0 L 3.9375 -38.828125 L 12.015625 -38.828125 Z M 12.015625 -7.203125 "/></g></g></g><g fill="#41483c" fill-opacity="0.4"><g transform="translate(181.702683, 242.3579)"><g><path d="M 28.109375 -31.6875 L 12.3125 -31.6875 L 12.3125 -22.984375 L 25.9375 -22.984375 L 25.9375 -15.84375 L 12.3125 -15.84375 L 12.3125 -7.140625 L 28.109375 -7.140625 L 28.109375 0 L 4.25 0 L 4.25 -38.828125 L 28.109375 -38.828125 Z M 28.109375 -31.6875 "/></g></g></g><g fill="#41483c" fill-opacity="0.4"><g transform="translate(209.187893, 242.3579)"><g><path d="M 28.3125 -38.828125 L 28.3125 -31.625 L 18.421875 -31.625 L 18.421875 0 L 10.40625 0 L 10.40625 -31.625 L 0.515625 -31.625 L 0.515625 -38.828125 Z M 28.3125 -38.828125 "/></g></g></g><g fill="#41483c" fill-opacity="1"><g transform="translate(130.966427, 240.070091)"><g><path d="M 28.109375 -31.6875 L 12.3125 -31.6875 L 12.3125 -22.984375 L 25.9375 -22.984375 L 25.9375 -15.84375 L 12.3125 -15.84375 L 12.3125 0 L 4.25 0 L 4.25 -38.828125 L 28.109375 -38.828125 Z M 28.109375 -31.6875 "/></g></g></g><g fill="#41483c" fill-opacity="1"><g transform="translate(157.1576, 240.070091)"><g><path d="M 12.015625 -7.203125 L 25.046875 -7.203125 L 25.046875 0 L 3.9375 0 L 3.9375 -38.828125 L 12.015625 -38.828125 Z M 12.015625 -7.203125 "/></g></g></g><g fill="#41483c" fill-opacity="1"><g transform="translate(179.414878, 240.070091)"><g><path d="M 28.109375 -31.6875 L 12.3125 -31.6875 L 12.3125 -22.984375 L 25.9375 -22.984375 L 25.9375 -15.84375 L 12.3125 -15.84375 L 12.3125 -7.140625 L 28.109375 -7.140625 L 28.109375 0 L 4.25 0 L 4.25 -38.828125 L 28.109375 -38.828125 Z M 28.109375 -31.6875 "/></g></g></g><g fill="#41483c" fill-opacity="1"><g transform="translate(206.900089, 240.070091)"><g><path d="M 28.3125 -38.828125 L 28.3125 -31.625 L 18.421875 -31.625 L 18.421875 0 L 10.40625 0 L 10.40625 -31.625 L 0.515625 -31.625 L 0.515625 -38.828125 Z M 28.3125 -38.828125 "/></g></g></g><g fill="#242424" fill-opacity="1"><g transform="translate(131.808923, 254.453583)"><g><path d="M 2.65625 0.109375 C 2.1875 0.109375 1.734375 0.046875 1.296875 -0.078125 C 0.859375 -0.210938 0.503906 -0.382812 0.234375 -0.59375 L 0.703125 -1.625 C 0.960938 -1.4375 1.265625 -1.285156 1.609375 -1.171875 C 1.960938 -1.054688 2.316406 -1 2.671875 -1 C 3.054688 -1 3.34375 -1.054688 3.53125 -1.171875 C 3.71875 -1.285156 3.8125 -1.441406 3.8125 -1.640625 C 3.8125 -1.785156 3.753906 -1.90625 3.640625 -2 C 3.535156 -2.09375 3.394531 -2.164062 3.21875 -2.21875 C 3.050781 -2.269531 2.820312 -2.332031 2.53125 -2.40625 C 2.070312 -2.507812 1.695312 -2.613281 1.40625 -2.71875 C 1.125 -2.832031 0.878906 -3.007812 0.671875 -3.25 C 0.460938 -3.488281 0.359375 -3.804688 0.359375 -4.203125 C 0.359375 -4.546875 0.453125 -4.859375 0.640625 -5.140625 C 0.828125 -5.421875 1.109375 -5.640625 1.484375 -5.796875 C 1.859375 -5.960938 2.316406 -6.046875 2.859375 -6.046875 C 3.242188 -6.046875 3.613281 -6 3.96875 -5.90625 C 4.332031 -5.820312 4.65625 -5.695312 4.9375 -5.53125 L 4.5 -4.484375 C 3.957031 -4.796875 3.410156 -4.953125 2.859375 -4.953125 C 2.472656 -4.953125 2.1875 -4.890625 2 -4.765625 C 1.8125 -4.640625 1.71875 -4.472656 1.71875 -4.265625 C 1.71875 -4.066406 1.820312 -3.914062 2.03125 -3.8125 C 2.25 -3.707031 2.578125 -3.609375 3.015625 -3.515625 C 3.472656 -3.410156 3.84375 -3.300781 4.125 -3.1875 C 4.414062 -3.082031 4.664062 -2.914062 4.875 -2.6875 C 5.082031 -2.457031 5.1875 -2.144531 5.1875 -1.75 C 5.1875 -1.40625 5.085938 -1.09375 4.890625 -0.8125 C 4.703125 -0.53125 4.414062 -0.304688 4.03125 -0.140625 C 3.65625 0.0234375 3.195312 0.109375 2.65625 0.109375 Z M 2.65625 0.109375 "/></g></g></g><g fill="#242424" fill-opacity="1"><g transform="translate(139.111509, 254.453583)"><g><path d="M 6.125 0 L 6.109375 -3.5625 L 4.359375 -0.625 L 3.734375 -0.625 L 2 -3.5 L 2 0 L 0.703125 0 L 0.703125 -5.953125 L 1.84375 -5.953125 L 4.078125 -2.25 L 6.265625 -5.953125 L 7.390625 -5.953125 L 7.40625 0 Z M 6.125 0 "/></g></g></g><g fill="#242424" fill-opacity="1"><g transform="translate(149.109005, 254.453583)"><g><path d="M 4.625 -1.28125 L 1.859375 -1.28125 L 1.328125 0 L -0.078125 0 L 2.578125 -5.953125 L 3.9375 -5.953125 L 6.59375 0 L 5.15625 0 Z M 4.1875 -2.328125 L 3.25 -4.59375 L 2.296875 -2.328125 Z M 4.1875 -2.328125 "/></g></g></g><g fill="#242424" fill-opacity="1"><g transform="translate(157.499755, 254.453583)"><g><path d="M 4.5 0 L 3.34375 -1.65625 L 2.078125 -1.65625 L 2.078125 0 L 0.703125 0 L 0.703125 -5.953125 L 3.28125 -5.953125 C 3.8125 -5.953125 4.269531 -5.863281 4.65625 -5.6875 C 5.039062 -5.507812 5.335938 -5.257812 5.546875 -4.9375 C 5.753906 -4.613281 5.859375 -4.234375 5.859375 -3.796875 C 5.859375 -3.347656 5.753906 -2.960938 5.546875 -2.640625 C 5.335938 -2.328125 5.035156 -2.082031 4.640625 -1.90625 L 5.96875 0 Z M 4.46875 -3.796875 C 4.46875 -4.128906 4.359375 -4.382812 4.140625 -4.5625 C 3.929688 -4.738281 3.617188 -4.828125 3.203125 -4.828125 L 2.078125 -4.828125 L 2.078125 -2.75 L 3.203125 -2.75 C 3.617188 -2.75 3.929688 -2.835938 4.140625 -3.015625 C 4.359375 -3.203125 4.46875 -3.460938 4.46875 -3.796875 Z M 4.46875 -3.796875 "/></g></g></g><g fill="#242424" fill-opacity="1"><g transform="translate(165.626971, 254.453583)"><g><path d="M 1.9375 -4.828125 L 0.03125 -4.828125 L 0.03125 -5.953125 L 5.21875 -5.953125 L 5.21875 -4.828125 L 3.3125 -4.828125 L 3.3125 0 L 1.9375 0 Z M 1.9375 -4.828125 "/></g></g></g><g fill="#242424" fill-opacity="1"><g transform="translate(172.759529, 254.453583)"><g/></g></g><g fill="#242424" fill-opacity="1"><g transform="translate(177.044164, 254.453583)"><g><path d="M 0.703125 -5.953125 L 3.40625 -5.953125 C 4.050781 -5.953125 4.617188 -5.828125 5.109375 -5.578125 C 5.609375 -5.328125 5.992188 -4.976562 6.265625 -4.53125 C 6.546875 -4.09375 6.6875 -3.570312 6.6875 -2.96875 C 6.6875 -2.375 6.546875 -1.851562 6.265625 -1.40625 C 5.992188 -0.957031 5.609375 -0.609375 5.109375 -0.359375 C 4.617188 -0.117188 4.050781 0 3.40625 0 L 0.703125 0 Z M 3.34375 -1.125 C 3.9375 -1.125 4.410156 -1.289062 4.765625 -1.625 C 5.117188 -1.957031 5.296875 -2.40625 5.296875 -2.96875 C 5.296875 -3.539062 5.117188 -3.988281 4.765625 -4.3125 C 4.410156 -4.644531 3.9375 -4.8125 3.34375 -4.8125 L 2.078125 -4.8125 L 2.078125 -1.125 Z M 3.34375 -1.125 "/></g></g></g><g fill="#242424" fill-opacity="1"><g transform="translate(185.944988, 254.453583)"><g><path d="M 5.3125 -1.109375 L 5.3125 0 L 0.703125 0 L 0.703125 -5.953125 L 5.203125 -5.953125 L 5.203125 -4.84375 L 2.078125 -4.84375 L 2.078125 -3.546875 L 4.84375 -3.546875 L 4.84375 -2.484375 L 2.078125 -2.484375 L 2.078125 -1.109375 Z M 5.3125 -1.109375 "/></g></g></g><g fill="#242424" fill-opacity="1"><g transform="translate(193.528122, 254.453583)"><g><path d="M 0.703125 -5.953125 L 2.078125 -5.953125 L 2.078125 -1.125 L 5.0625 -1.125 L 5.0625 0 L 0.703125 0 Z M 0.703125 -5.953125 "/></g></g></g><g fill="#242424" fill-opacity="1"><g transform="translate(200.541664, 254.453583)"><g><path d="M 0.703125 -5.953125 L 2.078125 -5.953125 L 2.078125 0 L 0.703125 0 Z M 0.703125 -5.953125 "/></g></g></g><g fill="#242424" fill-opacity="1"><g transform="translate(205.208859, 254.453583)"><g><path d="M 6.421875 -5.953125 L 3.84375 0 L 2.484375 0 L -0.078125 -5.953125 L 1.40625 -5.953125 L 3.21875 -1.703125 L 5.0625 -5.953125 Z M 6.421875 -5.953125 "/></g></g></g><g fill="#242424" fill-opacity="1"><g transform="translate(213.429581, 254.453583)"><g><path d="M 5.3125 -1.109375 L 5.3125 0 L 0.703125 0 L 0.703125 -5.953125 L 5.203125 -5.953125 L 5.203125 -4.84375 L 2.078125 -4.84375 L 2.078125 -3.546875 L 4.84375 -3.546875 L 4.84375 -2.484375 L 2.078125 -2.484375 L 2.078125 -1.109375 Z M 5.3125 -1.109375 "/></g></g></g><g fill="#242424" fill-opacity="1"><g transform="translate(221.012716, 254.453583)"><g><path d="M 4.5 0 L 3.34375 -1.65625 L 2.078125 -1.65625 L 2.078125 0 L 0.703125 0 L 0.703125 -5.953125 L 3.28125 -5.953125 C 3.8125 -5.953125 4.269531 -5.863281 4.65625 -5.6875 C 5.039062 -5.507812 5.335938 -5.257812 5.546875 -4.9375 C 5.753906 -4.613281 5.859375 -4.234375 5.859375 -3.796875 C 5.859375 -3.347656 5.753906 -2.960938 5.546875 -2.640625 C 5.335938 -2.328125 5.035156 -2.082031 4.640625 -1.90625 L 5.96875 0 Z M 4.46875 -3.796875 C 4.46875 -4.128906 4.359375 -4.382812 4.140625 -4.5625 C 3.929688 -4.738281 3.617188 -4.828125 3.203125 -4.828125 L 2.078125 -4.828125 L 2.078125 -2.75 L 3.203125 -2.75 C 3.617188 -2.75 3.929688 -2.835938 4.140625 -3.015625 C 4.359375 -3.203125 4.46875 -3.460938 4.46875 -3.796875 Z M 4.46875 -3.796875 "/></g></g></g><g fill="#242424" fill-opacity="1"><g transform="translate(229.139927, 254.453583)"><g><path d="M 3.5625 -2.109375 L 3.5625 0 L 2.1875 0 L 2.1875 -2.125 L -0.125 -5.953125 L 1.34375 -5.953125 L 2.9375 -3.3125 L 4.515625 -5.953125 L 5.875 -5.953125 Z M 3.5625 -2.109375 "/></g></g></g></svg>